<svg height="16" width="16" xmlns="http://www.w3.org/2000/svg"><path style="font-style:normal;font-variant:normal;font-weight:400;font-stretch:normal;font-size:15px;line-height:125%;font-family:Ubuntu;-inkscape-font-specification:Ubuntu;text-align:center;letter-spacing:0;word-spacing:0;writing-mode:lr-tb;text-anchor:middle;display:inline;fill:#fff;fill-opacity:1;stroke:none;stroke-width:.0875;enable-background:new" d="M2 1C.892 1 0 1.892 0 3v8c0 1.108.892 2 2 2h1.521L6 16l2-3h6c1.108 0 2-.892 2-2V3c0-1.108-.892-2-2-2H2zm0 1h12c.554 0 1 .446 1 1v8c0 .554-.446 1-1 1H7.566L6 14.4 4.033 12H2c-.554 0-1-.446-1-1V3c0-.554.446-1 1-1zm1.25 2a.25.25 0 0 0-.25.25v.5c0 .138.112.25.25.25h9.5a.25.25 0 0 0 .25-.25v-.5a.25.25 0 0 0-.25-.25h-9.5zm0 2a.25.25 0 0 0-.25.25v.5c0 .138.112.25.25.25h6.5a.25.25 0 0 0 .25-.25v-.5A.25.25 0 0 0 9.75 6h-6.5zM1.3 13c.153.017.322.021.524 0h-.523z"/></svg>