<svg height="16" width="16" xmlns="http://www.w3.org/2000/svg"><path style="opacity:1;vector-effect:none;fill:#fff;fill-opacity:1;stroke:none;stroke-width:1.88976383;stroke-linecap:round;stroke-linejoin:round;stroke-miterlimit:4;stroke-dasharray:none;stroke-dashoffset:0;stroke-opacity:1" d="M8 12c-2.216 0-4 1.784-4 4h1c0-1.662 1.338-3 3-3h4c1.662 0 3 1.338 3 3h1c0-2.216-1.784-4-4-4z"/><path style="color:#000;font-style:normal;font-variant:normal;font-weight:400;font-stretch:normal;font-size:medium;line-height:125%;font-family:Ubuntu;-inkscape-font-specification:'Ubuntu, Normal';font-variant-ligatures:normal;font-variant-position:normal;font-variant-caps:normal;font-variant-numeric:normal;font-variant-alternates:normal;font-feature-settings:normal;text-indent:0;text-align:start;text-decoration:none;text-decoration-line:none;text-decoration-style:solid;text-decoration-color:#000;letter-spacing:0;word-spacing:0;text-transform:none;writing-mode:lr-tb;direction:ltr;text-orientation:mixed;dominant-baseline:auto;baseline-shift:baseline;text-anchor:start;white-space:normal;shape-padding:0;clip-rule:nonzero;display:inline;overflow:visible;visibility:visible;opacity:1;isolation:auto;mix-blend-mode:normal;color-interpolation:sRGB;color-interpolation-filters:linearRGB;solid-color:#000;solid-opacity:1;fill:#fff;fill-opacity:1;fill-rule:nonzero;stroke:none;stroke-width:2;stroke-linecap:butt;stroke-linejoin:miter;stroke-miterlimit:4;stroke-dasharray:none;stroke-dashoffset:0;stroke-opacity:1;color-rendering:auto;image-rendering:auto;shape-rendering:auto;text-rendering:auto;enable-background:accumulate" d="M10 4.002c-.46 0-.897.085-1.299.258a2.98 2.98 0 0 0-1.047.717l-.004.004-.002.002a3.328 3.328 0 0 0-.664 1.119 4.012 4.012 0 0 0-.234 1.4c0 .509.075.981.234 1.41.156.422.378.795.664 1.108l.002.002.004.002c.294.311.646.557 1.043.728l.002.002.004.002c.401.165.839.246 1.297.246.459 0 .894-.081 1.295-.246v-.002a3.016 3.016 0 0 0 1.033-.73 3.25 3.25 0 0 0 .68-1.11c.16-.429.234-.903.234-1.412h.008c0-.501-.076-.968-.234-1.396a3.234 3.234 0 0 0-.678-1.123 2.896 2.896 0 0 0-1.039-.72A3.242 3.242 0 0 0 10 4.002zm-.113 1.04c.542-.043 1.11.105 1.517.476.768.626.936 1.716.748 2.642-.128.839-.787 1.601-1.632 1.764-.823.188-1.767-.064-2.262-.78-.53-.691-.55-1.621-.399-2.443.211-.92 1.057-1.698 2.028-1.66z"/><path style="display:inline;opacity:.5;vector-effect:none;fill:#fff;fill-opacity:1;stroke:none;stroke-width:1.88976383;stroke-linecap:round;stroke-linejoin:round;stroke-miterlimit:4;stroke-dasharray:none;stroke-dashoffset:0;stroke-opacity:1" d="M6 1.002c-.46 0-.897.085-1.299.258a2.98 2.98 0 0 0-1.047.717l-.004.004-.002.002a3.328 3.328 0 0 0-.664 1.119 4.012 4.012 0 0 0-.234 1.4c0 .509.075.981.234 1.41.156.422.378.795.664 1.108l.002.002.004.002c.294.311.646.557 1.043.728l.002.002.004.002c.334.137.697.204 1.073.227a4.488 4.488 0 0 1 .01-1.018c-.6-.05-1.177-.313-1.528-.82-.53-.692-.55-1.622-.398-2.443.21-.92 1.056-1.698 2.027-1.66.542-.043 1.11.105 1.517.476.32.261.531.605.66.982.304-.165.624-.292.956-.377l-.004-.017a3.234 3.234 0 0 0-.678-1.123 2.896 2.896 0 0 0-1.04-.72A3.242 3.242 0 0 0 6 1.002zM4 9c-2.216 0-4 1.784-4 4v1h1v-1c0-1.662 1.338-3 3-3h2.47a4.61 4.61 0 0 1-.472-1z"/></svg>