<svg height="16" width="16" xmlns="http://www.w3.org/2000/svg"><g style="display:inline"><path d="M475.994 162c-1.258.015-2.179-.03-2.931.385a1.88 1.88 0 0 0-.838.998c-.165.438-.225.96-.225 1.617v7c0 .658.06 1.179.225 1.617.164.439.461.79.838.998.752.416 1.673.37 2.931.385h8.012c1.258-.015 2.179.03 2.932-.385a1.88 1.88 0 0 0 .838-.998c.164-.438.224-.96.224-1.617v-7c0-.658-.06-1.179-.225-1.617a1.88 1.88 0 0 0-.837-.998c-.753-.416-1.674-.37-2.932-.385h-8.008zm2.903 1.092a346.19 346.19 0 0 1 5.246.021c.86.147 2.16-.341 2.673.668.256 2.924.07 5.882.13 8.819-.088.38-.185 1.143-.731 1.129-3.537.235-7.092.108-10.635.134-.786-.112-2 .29-2.404-.691-.17-2.466-.089-4.95-.09-7.436.122-.84-.296-2.064.688-2.511 1.689-.212 3.408-.078 5.123-.133zm-3.415 1.887a.5.5 0 0 0-.273.904l1.467 1.1-1.467 1.099c-.534.401.068 1.202.602.8l2-1.5a.5.5 0 0 0 0-.8l-2-1.5a.502.502 0 0 0-.329-.103zm2.528 4.003v1h3v-1z" style="color:#000;font-style:normal;font-variant:normal;font-weight:400;font-stretch:normal;font-size:medium;line-height:normal;font-family:sans-serif;font-variant-ligatures:normal;font-variant-position:normal;font-variant-caps:normal;font-variant-numeric:normal;font-variant-alternates:normal;font-feature-settings:normal;text-indent:0;text-align:start;text-decoration:none;text-decoration-line:none;text-decoration-style:solid;text-decoration-color:#000;letter-spacing:normal;word-spacing:normal;text-transform:none;writing-mode:lr-tb;direction:ltr;text-orientation:mixed;dominant-baseline:auto;baseline-shift:baseline;text-anchor:start;white-space:normal;shape-padding:0;clip-rule:nonzero;display:inline;overflow:visible;visibility:visible;opacity:1;isolation:auto;mix-blend-mode:normal;color-interpolation:sRGB;color-interpolation-filters:linearRGB;solid-color:#000;solid-opacity:1;vector-effect:none;fill:#fff;fill-opacity:1;fill-rule:nonzero;stroke:none;stroke-width:1.00000012;stroke-linecap:butt;stroke-linejoin:miter;stroke-miterlimit:4;stroke-dasharray:none;stroke-dashoffset:0;stroke-opacity:1;marker:none;color-rendering:auto;image-rendering:auto;shape-rendering:auto;text-rendering:auto;enable-background:accumulate" transform="translate(-472 -160)"/></g></svg>