<svg viewBox="0 0 16 16" xmlns="http://www.w3.org/2000/svg"><path d="M15 1c-.837.188-1.683.407-2.54.654-.86.253-1.685.527-2.468.819l1.414 1.414-3.76 3.76.707.707 3.76-3.76 1.412 1.414c.296-.818.566-1.645.81-2.479.248-.856.47-1.699.665-2.529zM2 4C.892 4 0 4.892 0 6v8c0 1.108.892 2 2 2h9c1.108 0 2-.892 2-2V9h-1v5c0 .554-.446 1-1 1H2c-.554 0-1-.446-1-1V6c0-.554.446-1 1-1h5V4z" fill="#fff" style="font-feature-settings:normal;font-variant-alternates:normal;font-variant-caps:normal;font-variant-ligatures:none;font-variant-numeric:normal;font-variant-position:normal;isolation:auto;mix-blend-mode:normal;shape-padding:0;text-decoration-color:#000;text-decoration-line:none;text-decoration-style:solid;text-indent:0;text-transform:none"/></svg>