<svg viewBox="0 0 16 16" xmlns="http://www.w3.org/2000/svg"><path d="M6 0a2 2 0 1 1 0 4 2 2 0 0 1 0-4zM0 5h12v1.002h-1.207c-.447 0-.964.075-1.328.234a2.047 2.047 0 0 0-.867.655 2.407 2.407 0 0 0-.461.988 5.588 5.588 0 0 0-.127 1.225L7.986 14h-1L7 11a.998.998 0 0 0-1-1c-.552 0-.996.448-1 1l-.014 3H4l.024-4.902V9.09c-.027-.427-.04-.83-.127-1.211a2.42 2.42 0 0 0-.461-.987 2.046 2.046 0 0 0-.867-.656c-.365-.16-.807-.234-1.328-.234H0z" fill="#fff" font-family="sans-serif" font-weight="400" overflow="visible" style="font-variant-ligatures:normal;font-variant-position:normal;font-variant-caps:normal;font-variant-numeric:normal;font-variant-alternates:normal;font-feature-settings:normal;text-indent:0;text-decoration:none;text-decoration-line:none;text-decoration-style:solid;text-decoration-color:#000;text-transform:none;text-orientation:mixed;shape-padding:0;isolation:auto;mix-blend-mode:normal"/><circle style="fill:#e95420;fill-rule:evenodd;stroke-linecap:square;fill-opacity:1" cx="12.5" cy="8.5" r="1.5"/><path style="fill:#e95420;fill-rule:evenodd;stroke-linecap:square;fill-opacity:1" d="M9 11v1c1.108 0 2 .892 2 2v2h1v-1.5a.499.499 0 1 1 1 0V16h1v-2c0-1.108.892-2 2-2v-1z"/></svg>