<svg viewBox="0 0 16 16" xmlns="http://www.w3.org/2000/svg"><path d="M2 2c-.438 0-.786.04-1.078.148-.292.11-.526.31-.664.561C-.02 3.211.01 3.823 0 4.662v6.676c.01.839-.02 1.451.258 1.953.138.251.372.45.664.56.292.11.64.149 1.078.149h12c.439 0 .786-.04 1.078-.148.293-.11.528-.31.666-.561.277-.502.246-1.114.256-1.953V5.217a3 3 0 0 1-1 .592v5.529c-.01.855-.037 1.3-.13 1.47a.27.27 0 0 1-.143.108c-.121.045-.347.084-.727.084H2c-.38 0-.607-.039-.727-.084a.257.257 0 0 1-.14-.107c-.096-.174-.123-.617-.133-1.471V4.664c.01-.856.037-1.299.133-1.473a.257.257 0 0 1 .14-.107C1.394 3.039 1.621 3 2 3h9a3 3 0 0 1 .191-1H2zm.537 2.578-.285.438 5.873 4.22 4.793-3.457a3 3 0 0 1-.635-.338l-4.158 2.51-5.588-3.373z" style="fill:#fff"/><circle style="fill:#e95420;fill-opacity:1;fill-rule:evenodd;stroke-linecap:round;stroke-linejoin:round" cx="14" cy="3" r="2"/></svg>