<svg xmlns="http://www.w3.org/2000/svg" height="16" width="16"><path style="opacity:1;fill:#fff;fill-rule:evenodd;stroke-linecap:square" d="M12.5 9A3.5 3.5 0 0 0 9 12.5a3.5 3.5 0 0 0 3.5 3.5 3.5 3.5 0 0 0 3.5-3.5A3.5 3.5 0 0 0 12.5 9zm-.5 2h1v1h-1zm0 2h1v2h-1z"/><path style="opacity:1;vector-effect:none;fill:#fff;fill-opacity:1;stroke:none;stroke-width:1.88976;stroke-linecap:round;stroke-linejoin:round;stroke-miterlimit:4;stroke-dasharray:none;stroke-dashoffset:0;stroke-opacity:1" d="M4 7.998c-2.216 0-4 1.784-4 4h1c0-1.662 1.338-3 3-3h4c.477 0 .922.12 1.322.316a4.5 4.5 0 0 1 .856-.668A3.985 3.985 0 0 0 8 7.998H4z"/><path style="color:#000;font-style:normal;font-variant:normal;font-weight:400;font-stretch:normal;font-size:medium;line-height:125%;font-family:Ubuntu;-inkscape-font-specification:'Ubuntu, Normal';font-variant-ligatures:normal;font-variant-position:normal;font-variant-caps:normal;font-variant-numeric:normal;font-variant-alternates:normal;font-feature-settings:normal;text-indent:0;text-align:start;text-decoration:none;text-decoration-line:none;text-decoration-style:solid;text-decoration-color:#000;letter-spacing:0;word-spacing:0;text-transform:none;writing-mode:lr-tb;direction:ltr;text-orientation:mixed;dominant-baseline:auto;baseline-shift:baseline;text-anchor:start;white-space:normal;shape-padding:0;clip-rule:nonzero;display:inline;overflow:visible;visibility:visible;opacity:1;isolation:auto;mix-blend-mode:normal;color-interpolation:sRGB;color-interpolation-filters:linearRGB;solid-color:#000;solid-opacity:1;fill:#fff;fill-opacity:1;fill-rule:nonzero;stroke:none;stroke-width:2;stroke-linecap:butt;stroke-linejoin:miter;stroke-miterlimit:4;stroke-dasharray:none;stroke-dashoffset:0;stroke-opacity:1;color-rendering:auto;image-rendering:auto;shape-rendering:auto;text-rendering:auto;enable-background:accumulate" d="M6 0c-.46 0-.897.085-1.299.258a2.98 2.98 0 0 0-1.047.717L3.65.979 3.648.98a3.328 3.328 0 0 0-.664 1.12 4.012 4.012 0 0 0-.234 1.4c0 .509.075.981.234 1.41.156.422.378.795.664 1.108l.002.002.004.002c.294.311.646.557 1.043.728l.002.002.004.002A3.41 3.41 0 0 0 6 7c.459 0 .894-.081 1.295-.246v-.002a3.016 3.016 0 0 0 1.033-.73 3.25 3.25 0 0 0 .68-1.11c.16-.429.234-.903.234-1.412h.008c0-.501-.076-.968-.234-1.396A3.234 3.234 0 0 0 8.338.98 2.896 2.896 0 0 0 7.3.26 3.242 3.242 0 0 0 6 0zm-.113 1.04c.542-.043 1.11.105 1.517.476.768.626.936 1.716.748 2.642-.128.839-.787 1.601-1.632 1.764-.823.188-1.767-.064-2.262-.78-.53-.691-.55-1.621-.399-2.443.211-.92 1.057-1.698 2.028-1.66z"/></svg>