<svg height="16" width="16.015" xmlns="http://www.w3.org/2000/svg"><g style="display:inline"><path d="M500.182 321.004a6.99 6.99 0 0 0-6.248 3.492c-1.929 3.343-.776 7.63 2.57 9.563 3.346 1.933 7.634.792 9.562-2.551 1.929-3.343.776-7.633-2.57-9.567a6.98 6.98 0 0 0-3.314-.937zM500 322a6 6 0 0 1 6 6 6 6 0 0 1-6 6 6 6 0 0 1-6-6 6 6 0 0 1 6-6z" style="color:#000;font-style:normal;font-variant:normal;font-weight:400;font-stretch:normal;font-size:medium;line-height:normal;font-family:sans-serif;font-variant-ligatures:none;font-variant-position:normal;font-variant-caps:normal;font-variant-numeric:normal;font-variant-alternates:normal;font-feature-settings:normal;text-indent:0;text-align:start;text-decoration:none;text-decoration-line:none;text-decoration-style:solid;text-decoration-color:#000;letter-spacing:normal;word-spacing:normal;text-transform:none;writing-mode:lr-tb;direction:ltr;baseline-shift:baseline;text-anchor:start;white-space:normal;shape-padding:0;clip-rule:nonzero;display:inline;overflow:visible;visibility:visible;opacity:1;isolation:auto;mix-blend-mode:normal;color-interpolation:sRGB;color-interpolation-filters:linearRGB;solid-color:#000;solid-opacity:1;fill:#fff;fill-opacity:1;fill-rule:nonzero;stroke:none;stroke-width:.66666687;stroke-linecap:butt;stroke-linejoin:miter;stroke-miterlimit:4;stroke-dasharray:none;stroke-dashoffset:0;stroke-opacity:1;marker:none;color-rendering:auto;image-rendering:auto;shape-rendering:auto;text-rendering:auto;enable-background:accumulate" transform="translate(-492 -320)"/><path d="M498.69 320.122v1.545a6.485 6.485 0 0 1 2.632.005v-1.55zm-2.753.99-2.006 1.704.988 1.178a6.466 6.466 0 0 1 2.017-1.691zm8.128.012-.993 1.183.17.09a6.507 6.507 0 0 1 1.845 1.604l1.006-1.198zm-11.61 4.217-.44 2.595 1.515.267a6.477 6.477 0 0 1 .455-2.592zm15.086.003-1.523.268a6.49 6.49 0 0 1 .464 2.591l1.533-.27zm-13.683 4.694-1.351.78 1.33 2.272 1.339-.773a6.498 6.498 0 0 1-1.318-2.279zm12.301.003a6.47 6.47 0 0 1-.534 1.215c-.221.382-.48.74-.774 1.07l1.338.772 1.302-2.288zm-9.557 3.472-.534 1.469 2.48.884.525-1.445a6.495 6.495 0 0 1-2.303-.8 6.256 6.256 0 0 1-.168-.108zm6.814.015a6.473 6.473 0 0 1-2.475.898l.53 1.456 2.468-.916z" style="color:#000;display:inline;overflow:visible;visibility:visible;fill:#fff;fill-opacity:1;fill-rule:nonzero;stroke:none;stroke-width:.33333337;marker:none;enable-background:accumulate" transform="translate(-492 -320)"/><path d="M499.648 323.014a4.989 4.989 0 0 0-3.982 2.482 5.013 5.013 0 0 0 1.836 6.834 5.002 5.002 0 0 0 6.83-1.826 5.01 5.01 0 0 0-1.836-6.832 4.976 4.976 0 0 0-2.848-.658zM500 324a4 4 0 0 1 4 4 4 4 0 0 1-4 4 4 4 0 0 1-4-4 4 4 0 0 1 4-4z" style="color:#000;font-style:normal;font-variant:normal;font-weight:400;font-stretch:normal;font-size:medium;line-height:normal;font-family:sans-serif;font-variant-ligatures:none;font-variant-position:normal;font-variant-caps:normal;font-variant-numeric:normal;font-variant-alternates:normal;font-feature-settings:normal;text-indent:0;text-align:start;text-decoration:none;text-decoration-line:none;text-decoration-style:solid;text-decoration-color:#000;letter-spacing:normal;word-spacing:normal;text-transform:none;writing-mode:lr-tb;direction:ltr;baseline-shift:baseline;text-anchor:start;white-space:normal;shape-padding:0;clip-rule:nonzero;display:inline;overflow:visible;visibility:visible;opacity:1;isolation:auto;mix-blend-mode:normal;color-interpolation:sRGB;color-interpolation-filters:linearRGB;solid-color:#000;solid-opacity:1;fill:#fff;fill-opacity:1;fill-rule:nonzero;stroke:none;stroke-width:.66666681;stroke-linecap:butt;stroke-linejoin:miter;stroke-miterlimit:4;stroke-dasharray:none;stroke-dashoffset:0;stroke-opacity:1;marker:none;color-rendering:auto;image-rendering:auto;shape-rendering:auto;text-rendering:auto;enable-background:accumulate" transform="translate(-492 -320)"/></g></svg>