<svg viewBox="0 0 16 16" xmlns="http://www.w3.org/2000/svg"><path d="M7.5 0C5.861 0 4.896.741 4.445 1.492S4 3 4 3h-.006c-1.258.015-2.179-.03-2.931.385a1.88 1.88 0 0 0-.838.998C.06 4.82 0 5.343 0 6v7c0 .658.06 1.179.225 1.617.164.439.461.789.838.996.752.415.673.372 1.931.387h8.012c1.258-.014 2.179.03 2.932-.385a1.88 1.88 0 0 0 .837-.998c.165-.438.225-.96.225-1.617V6c0-.658-.06-1.179-.225-1.617a1.875 1.875 0 0 0-.837-.996c-.753-.415-1.674-.372-2.932-.387H11s.005-.757-.445-1.508C10.105.742 9.139 0 7.5 0zm0 1c1.361 0 1.896.509 2.195 1.008.3.499.305.992.305.992H5s.005-.493.305-.992C5.604 1.508 6.139 1 7.5 1zM4 4h7c1.259.015 2.09.06 2.455.262.184.1.287.213.385.472.097.26.16.674.16 1.266v7c0 .592-.063 1.006-.16 1.266-.098.26-.201.371-.385.472-.366.202-1.197.247-2.455.262H4c-1.259-.015-2.09-.06-2.455-.262-.184-.1-.287-.213-.385-.472C1.063 14.006 1 13.592 1 13V6c0-.592.063-1.006.16-1.266.098-.26.203-.371.387-.472C1.913 4.06 2.74 4.015 4 4zm3.5 2A1.5 1.5 0 0 0 6 7.5 1.5 1.5 0 0 0 7.5 9 1.5 1.5 0 0 0 9 7.5 1.5 1.5 0 0 0 7.5 6zm-3 4A1.5 1.5 0 0 0 3 11.5 1.5 1.5 0 0 0 4.5 13 1.5 1.5 0 0 0 6 11.5 1.5 1.5 0 0 0 4.5 10zm6 0A1.5 1.5 0 0 0 9 11.5a1.5 1.5 0 0 0 1.5 1.5 1.5 1.5 0 0 0 1.5-1.5 1.5 1.5 0 0 0-1.5-1.5z" color="#000" fill="#fff" style="font-feature-settings:normal;font-variant-alternates:normal;font-variant-caps:normal;font-variant-ligatures:normal;font-variant-numeric:normal;font-variant-position:normal;isolation:auto;mix-blend-mode:normal;shape-padding:0;text-decoration-color:#000;text-decoration-line:none;text-decoration-style:solid;text-indent:0;text-orientation:mixed;text-transform:none;white-space:normal"/></svg>