<svg height="16" width="16" xmlns="http://www.w3.org/2000/svg"><path style="line-height:normal;text-indent:0;text-align:start;text-decoration-line:none;text-decoration-style:solid;text-decoration-color:#000;text-transform:none;isolation:auto;mix-blend-mode:normal;stroke-width:.999999;fill:#fdc92b;fill-opacity:1" d="M7.953 1a1.013.989 0 0 0-.822.492L.133 13.541A1 .976 0 0 0 .998 15h14.004a1 .976 0 0 0 .865-1.459L8.875 1.492A1.01.987 0 0 0 7.955 1h-.002zM7 5h2v3l-.5 2h-1L7 8V5zm1 6a1 1 0 0 1 0 2 1 1 0 0 1 0-2z" class="warning"/></svg>