<svg viewBox="0 1 24 24" height="24" width="24" xmlns="http://www.w3.org/2000/svg"><path style="fill:#fff;fill-rule:evenodd;stroke-linecap:round;stroke-linejoin:round" d="M12 1A12 12 0 0 0 0 13a12 12 0 0 0 12 12 12 12 0 0 0 12-12A12 12 0 0 0 12 1zm0 1a11 11 0 0 1 11 11 11 11 0 0 1-11 11A11 11 0 0 1 1 13 11 11 0 0 1 12 2z"/><circle style="fill:#fff;fill-opacity:1;fill-rule:evenodd;stroke-width:2;stroke-linecap:square" cx="12" cy="19" r="1.2"/><path style="fill:#fff;fill-opacity:1;stroke:none;stroke-width:1px;stroke-linecap:butt;stroke-linejoin:miter" d="M10.8 5.8h2.4v6l-.48 3.6h-1.44l-.48-3.6z"/></svg>