<svg viewBox="0 1 24 24" height="24" width="24"
    xmlns="http://www.w3.org/2000/svg">
    <path d="M12 1S9.44 5.286 2.608 5.286C2.608 19.859 12 25 12 25s9.392-5.14 9.392-19.714C14.561 5.286 12 1 12 1zm0 2.17c.426.488.402.657 1.223 1.244 1.427 1.024 3.697 1.863 6.5 2.177-.272 6.173-2.252 10.398-4.273 13.074-1.537 2.032-2.724 2.94-3.45 3.433-.725-.493-1.913-1.4-3.448-3.433-2.023-2.676-4.003-6.901-4.274-13.074 2.802-.313 5.072-1.153 6.5-2.175.82-.59.798-.756 1.222-1.246zm0 2.205c-.144.125-.114.17-.313.312-1.39.997-3.366 1.668-5.606 2.107.478 5.056 2.038 8.7 3.721 10.926 1.027 1.359 1.59 1.717 2.198 2.204.61-.485 1.174-.845 2.2-2.204 1.684-2.226 3.244-5.869 3.722-10.923-2.242-.439-4.219-1.112-5.61-2.11-.198-.141-.168-.188-.312-.313z" style="stroke-width:1;marker:none;fill:#fff" color="#000" overflow="visible" fill="white"/>
</svg>
