<svg height="20" width="20" xmlns="http://www.w3.org/2000/svg"><path style="color:#000;display:inline;overflow:visible;visibility:visible;fill:#fff;fill-opacity:1;fill-rule:nonzero;stroke:none;stroke-width:2.99881;marker:none;enable-background:accumulate" d="M15.303 4.697c-2.187.797-4.743 2.094-6.143 2.832-.287.14-.553.33-.781.557-1.058 1.058-1.123 2.705-.147 3.682.977.976 2.624.91 3.682-.147.195-.195.364-.415.496-.656.729-1.376 2.079-4.032 2.893-6.268zM9.983 8.75a1.25 1.25 0 0 1 .9.367 1.25 1.25 0 0 1 0 1.766 1.25 1.25 0 0 1-1.766 0 1.25 1.25 0 0 1 0-1.766 1.25 1.25 0 0 1 .865-.367z"/><path d="M11.768 8.232c-.977-.976-2.625-.91-3.683.147a2.915 2.915 0 0 0-.555.78c-.739 1.4-2.037 3.957-2.833 6.144 2.235-.814 4.89-2.165 6.266-2.893.241-.132.463-.3.658-.495 1.058-1.058 1.123-2.706.147-3.683zm-.884.884a1.25 1.25 0 0 1 0 1.768 1.25 1.25 0 0 1-1.768 0 1.25 1.25 0 0 1 0-1.768 1.25 1.25 0 0 1 1.768 0z" style="color:#000;display:inline;overflow:visible;visibility:visible;opacity:.5;fill:#fff;fill-opacity:1;fill-rule:nonzero;stroke:none;stroke-width:2.99881;marker:none;enable-background:accumulate"/><path style="fill:#fff;fill-opacity:1;fill-rule:evenodd;stroke-linecap:round;stroke-linejoin:round" d="M10 0A10 10 0 0 0 0 10a10 10 0 0 0 10 10 10 10 0 0 0 10-10A10 10 0 0 0 10 0zm0 1a9 9 0 0 1 9 9 9 9 0 0 1-9 9 9 9 0 0 1-9-9 9 9 0 0 1 9-9z"/></svg>