<svg viewBox="0 1 20 20" height="20" width="20" xmlns="http://www.w3.org/2000/svg"><path style="fill:#fff;fill-opacity:1;fill-rule:evenodd;stroke-width:2;stroke-linecap:round" d="M4.5 9A4.5 4.5 0 0 0 0 13.5 4.5 4.5 0 0 0 4.5 18a4.5 4.5 0 0 0 2.813-1h5.375a4.5 4.5 0 0 0 2.812 1 4.5 4.5 0 0 0 4.5-4.5A4.5 4.5 0 0 0 15.5 9zm0 1h11a3.5 3.5 0 0 1 3.5 3.5 3.5 3.5 0 0 1-3.5 3.5 3.5 3.5 0 0 1-2.445-1H6.946A3.5 3.5 0 0 1 4.5 17 3.5 3.5 0 0 1 1 13.5 3.5 3.5 0 0 1 4.5 10z"/><path style="fill:#fff;fill-opacity:1;fill-rule:evenodd;stroke-width:2;stroke-linecap:butt" d="M4 12h1v3H4z"/><path style="fill:#fff;fill-opacity:1;fill-rule:evenodd;stroke-width:2;stroke-linecap:butt" d="M3 13h3v1H3z"/><circle style="fill:#fff;fill-opacity:1;fill-rule:evenodd;stroke-width:2;stroke-linecap:butt" cx="16.5" cy="13.5" r=".5"/><circle style="fill:#fff;fill-opacity:1;fill-rule:evenodd;stroke-width:2;stroke-linecap:butt" cx="15.5" cy="12.5" r=".5"/><circle style="fill:#fff;fill-opacity:1;fill-rule:evenodd;stroke-width:2;stroke-linecap:butt" cx="14.5" cy="13.5" r=".5"/><circle style="fill:#fff;fill-opacity:1;fill-rule:evenodd;stroke-width:2;stroke-linecap:butt" cx="15.5" cy="14.5" r=".5"/><path style="fill:#fff;fill-opacity:1;fill-rule:evenodd;stroke-width:2;stroke-linecap:butt" d="M9 6h2v3H9zM9 4h2v1H9zM9 2h2v1H9z"/><circle style="fill:#fff;fill-opacity:1;fill-rule:evenodd;stroke-width:2;stroke-linecap:butt" cx="8.5" cy="12.5" r=".5"/><circle style="fill:#fff;fill-opacity:1;fill-rule:evenodd;stroke-width:2;stroke-linecap:butt" cx="11.5" cy="12.5" r=".5"/></svg>