<svg viewBox="0 1 20 20" height="20" width="20" xmlns="http://www.w3.org/2000/svg"><path style="fill:#fff;fill-opacity:1;fill-rule:evenodd;stroke-width:1.5;stroke-linecap:square;stroke-linejoin:round" d="M8 1v1.248a9 9 0 0 0-2.096.76l-.8-.953-3.065 2.57.805.957A9 9 0 0 0 1.72 7.508L.5 7.293l-.695 3.94 1.226.216a9 9 0 0 0 .377 2.201l-1.068.618 2 3.464 1.076-.62a9 9 0 0 0 1.705 1.449l-.42 1.152L8.46 21.08l.422-1.16A9 9 0 0 0 10 20a9 9 0 0 0 1.12-.08l.421 1.16 3.758-1.367-.42-1.152a9 9 0 0 0 1.705-1.45l1.076.621 2-3.464-1.068-.618a9 9 0 0 0 .377-2.2l1.226-.218-.695-3.939-1.207.213a9 9 0 0 0-1.121-1.942l.789-.939-3.065-2.57-.789.94A9 9 0 0 0 12 2.228V1zm2 2a8 8 0 0 1 5.035 1.783 8 8 0 0 1 2.867 4.965A8 8 0 0 1 18 11a8 8 0 0 1-8 8 8 8 0 0 1-8-8 8 8 0 0 1 .098-1.252A8 8 0 0 1 10 3zm0 1a7 7 0 0 0-7 7 7 7 0 0 0 7 7 7 7 0 0 0 7-7 7 7 0 0 0-7-7zm0 1a6 6 0 0 1 6 6 6 6 0 0 1-6 6 6 6 0 0 1-6-6 6 6 0 0 1 6-6z"/></svg>