<svg viewBox="0 1 32 32" width="32" height="32" xmlns="http://www.w3.org/2000/svg"><path style="color:#000;fill:none;fill-opacity:1;stroke:#fff;stroke-width:1;-inkscape-stroke:none" d="M4.5 3.5h23c1.6 0 2.73.059 3.244.316.257.128.392.26.525.559.133.3.231.792.231 1.525v16.2c0 .733-.098 1.226-.231 1.525-.133.3-.268.43-.525.56-.514.256-1.644.315-3.244.315h-.369L22.7 29.672 18.269 24.5H4.5c-1.6 0-2.73-.059-3.244-.316-.257-.128-.392-.26-.525-.559C.598 23.325.5 22.833.5 22.1V5.9c0-.733.098-1.226.231-1.525.133-.3.268-.43.525-.56C1.77 3.56 2.9 3.5 4.5 3.5z"/><path style="fill:#fff;fill-rule:evenodd;stroke-width:.999998;stroke-linecap:round;stroke-linejoin:round" d="M7 8h18v1H7zM7 11h18v1H7zM7 14h18v1H7zM7 17h9v1H7z"/></svg>