<svg viewBox="0 1 32 32" height="32" width="32" xmlns="http://www.w3.org/2000/svg"><path style="fill:#fff;fill-rule:evenodd;stroke:none;stroke-linecap:round;stroke-linejoin:round;opacity:.5" d="M11.984 3c-3.313 0-6 3.134-6 7s2.687 7 6 7a5.178 5.178 0 0 0 1.082-.129A9.12 9.12 0 0 1 13 16a8.51 8.51 0 0 1 .012-.145c-.338.091-.682.14-1.028.145-2.761 0-5-2.686-5-6s2.239-6 5-6c2.396 0 4.455 2.04 4.909 4.863.3-.175.613-.325.933-.449-.632-3.17-3.052-5.413-5.842-5.414zm-4 15A7.994 7.994 0 0 0 0 25.5h1.004a6.97 6.97 0 0 1 6.98-6.5h5.545a8.842 8.842 0 0 1-.281-1z"/><path style="fill:#fff;fill-rule:evenodd;stroke:none;stroke-linecap:round;stroke-linejoin:round" d="M20 9a6 7 0 0 0-6 7 6 7 0 0 0 6 7 6 7 0 0 0 6-7 6 7 0 0 0-6-7zm0 1a5 6 0 0 1 5 6 5 6 0 0 1-5 6 5 6 0 0 1-5-6 5 6 0 0 1 5-6zm-4 14a7.994 7.994 0 0 0-7.984 7.5H9.02A6.97 6.97 0 0 1 16 25h8a6.97 6.97 0 0 1 6.98 6.5h1.004A7.994 7.994 0 0 0 24 24h-8z"/></svg>