<svg viewBox="0 1 32 32" height="32" width="32" xmlns="http://www.w3.org/2000/svg"><path style="fill:none;stroke:#fff;stroke-width:2;stroke-linecap:butt;stroke-linejoin:miter" d="M16 8v10l5.5 6.5"/><path style="fill:#fff;fill-rule:evenodd;stroke-width:.999999;stroke-linecap:square;stroke-linejoin:round" d="M16 2A15 15 0 0 0 5.805 6.041L3.18 3.414a70.557 70.557 0 0 0-1.325 4.059 85.112 85.112 0 0 0-1.087 4.146 70.685 70.685 0 0 0 4.158-1.072 59.602 59.602 0 0 0 4.043-1.34l-2.44-2.441A14 14 0 0 1 16 3a14 14 0 0 1 14 14 14 14 0 0 1-14 14A14 14 0 0 1 2 17H1a15 15 0 0 0 15 15 15 15 0 0 0 15-15A15 15 0 0 0 16 2z"/></svg>