<svg viewBox="0 1 32 32" height="32" width="32" xmlns="http://www.w3.org/2000/svg"><circle style="opacity:1;fill:#fff;fill-rule:evenodd;stroke:none;stroke-width:2;stroke-linecap:round;stroke-linejoin:round" cx="24.5" cy="10.5" r="2.5"/><path style="fill:#fff;stroke:none;stroke-width:1px;stroke-linecap:butt;stroke-linejoin:miter;opacity:1" d="m6 22 6-11 3 5.5 2-2.5 4 8z"/><path style="opacity:1;fill:#fff;fill-rule:evenodd;stroke:none;stroke-width:2;stroke-linecap:round;stroke-linejoin:round" d="M4.7 3A4.688 4.688 0 0 0 0 7.7v18.6C0 28.906 2.095 31 4.7 31h22.6c2.605 0 4.7-2.095 4.7-4.7V7.7C32 5.094 29.905 3 27.3 3zm.443 1h21.714c2.216 0 4 1.784 4 4v17H1.143V8c0-2.216 1.784-4 4-4z"/></svg>